<?xml version="1.0" standalone="no"?>
<!DOCTYPE svg PUBLIC "-//W3C//DTD SVG 20010904//EN"
 "http://www.w3.org/TR/2001/REC-SVG-20010904/DTD/svg10.dtd">
<svg version="1.0" xmlns="http://www.w3.org/2000/svg"
 width="512.000000pt" height="512.000000pt" viewBox="0 0 512.000000 512.000000"
 preserveAspectRatio="xMidYMid meet">

<g transform="translate(0.000000,512.000000) scale(0.100000,-0.100000)"
fill="#000000" stroke="none">
<path d="M2405 5105 c-142 -21 -234 -51 -362 -120 -263 -139 -459 -386 -539
-677 -40 -147 -45 -390 -42 -2093 3 -1526 3 -1530 24 -1575 11 -25 36 -59 55
-75 56 -50 918 -542 971 -556 37 -9 59 -9 95 0 49 12 644 348 716 404 21 16
48 48 60 71 l22 41 3 1148 2 1147 46 67 c132 193 195 395 195 629 0 230 -63
432 -192 620 l-49 70 0 235 c0 208 -3 239 -19 276 -39 84 -193 209 -356 288
-126 62 -222 90 -350 105 -112 12 -166 11 -280 -5z m326 -121 c162 -31 287
-86 417 -184 45 -34 95 -78 112 -98 l30 -37 0 -246 0 -246 27 -39 c14 -21 39
-58 55 -81 183 -268 214 -635 79 -936 -26 -59 -49 -97 -143 -236 -17 -24 -18
-99 -18 -1178 l0 -1153 -27 -29 c-16 -16 -170 -112 -343 -212 -281 -163 -320
-183 -360 -183 -41 0 -87 25 -483 255 -241 140 -449 265 -462 277 -14 14 -26
40 -30 65 -4 23 -5 805 -2 1737 4 1896 -2 1748 76 1935 178 425 630 673 1072
589z"/>
<path d="M2535 4518 c-11 -6 -23 -16 -27 -22 -4 -6 -8 -79 -8 -162 l0 -152
-75 -17 c-98 -22 -215 -81 -287 -145 -78 -70 -151 -182 -184 -283 -37 -113
-39 -259 -5 -367 69 -227 249 -395 476 -445 l75 -17 0 -154 c0 -141 2 -156 20
-174 25 -25 55 -25 80 0 18 18 20 33 20 174 l0 154 75 17 c225 50 405 216 475
440 34 106 32 262 -4 372 -33 101 -106 213 -184 283 -72 64 -189 123 -287 145
l-75 17 0 152 c0 83 -4 156 -8 162 -6 10 -46 34 -54 34 -2 0 -12 -6 -23 -12z
m109 -879 c91 -79 37 -223 -83 -223 -56 0 -93 23 -116 71 -26 54 -15 110 29
150 30 28 43 33 86 33 41 0 55 -5 84 -31z m-310 -197 c49 -98 124 -146 226
-146 102 0 177 48 226 146 l24 48 131 0 131 0 -7 -47 c-3 -27 -22 -80 -40
-119 -160 -334 -602 -398 -850 -122 -54 60 -111 173 -120 241 l-7 47 131 0
131 0 24 -48z"/>
<path d="M1882 1870 c-120 -73 -82 -259 58 -277 124 -17 214 133 141 235 -42
60 -137 80 -199 42z m106 -127 c3 -22 -28 -40 -48 -28 -12 7 -13 38 -3 49 15
14 48 1 51 -21z"/>
<path d="M1850 1344 c-39 -16 -53 -70 -24 -98 12 -13 40 -16 134 -16 111 0
120 1 134 22 22 30 20 51 -5 74 -17 16 -39 19 -123 21 -55 1 -108 0 -116 -3z"/>
<path d="M1826 1054 c-20 -19 -20 -54 -2 -80 13 -17 27 -19 129 -19 99 0 118
3 136 19 25 23 27 44 5 74 -14 21 -23 22 -134 22 -94 0 -122 -3 -134 -16z"/>
</g>
</svg>
